<svg xmlns="http://www.w3.org/2000/svg" xmlns:xlink="http://www.w3.org/1999/xlink" width="500" zoomAndPan="magnify" viewBox="0 0 375 374.999991" height="500" preserveAspectRatio="xMidYMid meet" version="1.0"><defs><clipPath id="2618dcd697"><path d="M 14.210938 12.285156 L 360.710938 12.285156 L 360.710938 359 L 14.210938 359 Z M 14.210938 12.285156 " clip-rule="nonzero"/></clipPath></defs><g clip-path="url(#2618dcd697)"><path fill="#2ec896" d="M 269.945312 12.285156 L 104.578125 12.285156 C 80.613281 12.285156 57.628906 21.808594 40.679688 38.753906 C 23.734375 55.699219 14.214844 78.6875 14.214844 102.652344 L 14.214844 268.019531 C 14.210938 279.886719 16.546875 291.636719 21.089844 302.601562 C 25.628906 313.566406 32.285156 323.527344 40.679688 331.921875 C 49.070312 340.3125 59.03125 346.96875 69.996094 351.511719 C 80.960938 356.050781 92.710938 358.386719 104.578125 358.386719 L 269.945312 358.386719 C 281.8125 358.386719 293.566406 356.050781 304.527344 351.511719 C 315.492188 346.96875 325.457031 340.3125 333.847656 331.921875 C 342.238281 323.527344 348.894531 313.566406 353.4375 302.601562 C 357.976562 291.636719 360.3125 279.886719 360.3125 268.019531 L 360.3125 102.652344 C 360.3125 78.6875 350.792969 55.699219 333.84375 38.753906 C 316.898438 21.808594 293.914062 12.285156 269.945312 12.285156 Z M 309.746094 250.316406 L 64.804688 250.316406 L 64.804688 209.148438 L 137.570312 209.148438 L 80.230469 151.808594 L 109.347656 122.699219 L 166.679688 180.039062 L 166.679688 99.546875 L 207.839844 99.546875 L 207.839844 180.039062 L 265.203125 122.699219 L 294.3125 151.808594 L 236.960938 209.148438 L 309.765625 209.148438 L 309.765625 250.324219 Z M 309.746094 250.316406 " fill-opacity="1" fill-rule="nonzero"/></g></svg>